<svg width="33" height="33" viewBox="0 0 33 33" fill="none" xmlns="http://www.w3.org/2000/svg">
<rect y="0.0117188" width="32.8239" height="32.8239" rx="16.412" fill="#9EADB9"/>
<path fill-rule="evenodd" clip-rule="evenodd" d="M23.5143 23.5254C23.9423 23.0961 24.2784 22.5801 24.4977 22.0142C24.7077 21.4706 24.8522 20.8509 24.8942 19.9423C24.9362 19.0325 24.9467 18.741 24.9467 16.4236C24.9467 14.1063 24.9362 13.8148 24.8942 12.9049C24.8522 11.9963 24.7077 11.3766 24.4977 10.8331C24.2833 10.2637 23.9472 9.74795 23.513 9.32184C23.0868 8.88764 22.5711 8.5516 22.0017 8.33712C21.4582 8.12705 20.8385 7.98262 19.9299 7.94061C19.02 7.8986 18.7285 7.8894 16.4112 7.8894C14.0938 7.8894 13.8023 7.89859 12.8924 7.94192C11.9839 7.98131 11.3642 8.12574 10.8206 8.33712C10.2515 8.55209 9.7359 8.88807 9.30939 9.32184C8.87562 9.74835 8.53963 10.264 8.32467 10.8331C8.1146 11.3766 7.97017 11.9963 7.92816 12.9049C7.88614 13.8148 7.87695 14.1063 7.87695 16.4236C7.87695 18.741 7.88614 19.0325 7.92947 19.9423C7.96886 20.8509 8.11329 21.4706 8.32467 22.0142C8.54 22.584 8.87611 23.0987 9.30939 23.5254C9.7361 23.9587 10.2521 24.2948 10.8206 24.5101C11.3642 24.7202 11.9839 24.8646 12.8924 24.9066C13.8023 24.9473 14.0938 24.9578 16.4112 24.9578C18.7285 24.9578 19.02 24.9473 19.9299 24.9053C20.8385 24.8659 21.4582 24.7215 22.0017 24.5101C22.5686 24.2907 23.0846 23.9553 23.5143 23.5254ZM9.18991 15.4192V17.428C9.18728 18.506 9.18728 18.7856 9.21617 19.3975C9.25031 20.1669 9.29232 20.7314 9.42099 21.1568C9.54441 21.5665 9.68227 21.984 10.1339 22.4855C10.5856 22.9884 11.0202 23.2156 11.5742 23.3836C12.1296 23.5504 12.8268 23.5858 13.4321 23.6134C14.1174 23.6449 14.3905 23.6449 15.8295 23.6449H17.3828C18.4883 23.6462 18.7666 23.6475 19.3863 23.6186C20.1544 23.5832 20.719 23.5412 21.1457 23.4138C21.554 23.2904 21.9715 23.1512 22.4731 22.7009C22.976 22.2492 23.2031 21.8133 23.3712 21.2592C23.5379 20.7052 23.5747 20.008 23.6022 19.4027C23.6324 18.7174 23.6324 18.4456 23.6324 17.0105V15.842C23.6324 14.403 23.6324 14.1312 23.6022 13.4445C23.5747 12.8393 23.5379 12.1421 23.3712 11.588C23.2044 11.0326 22.9773 10.598 22.4731 10.1464C21.9702 9.69472 21.554 9.55686 21.1457 9.43344C20.719 9.30608 20.1544 9.26276 19.3863 9.22862C18.7189 9.20119 18.0507 9.19243 17.3828 9.20236H15.8295C14.3905 9.20236 14.1174 9.20236 13.4321 9.23256C12.8268 9.26013 12.1296 9.29689 11.5742 9.46364C11.0202 9.6317 10.5856 9.85884 10.1339 10.3617C9.68227 10.8646 9.5431 11.2808 9.42099 11.6904C9.29232 12.1158 9.25031 12.6804 9.21617 13.4498C9.18728 14.0616 9.18728 14.3413 9.18991 15.4192ZM16.4112 13.4695C15.6277 13.4695 14.8763 13.7807 14.3223 14.3347C13.7683 14.8887 13.457 15.6401 13.457 16.4236C13.457 17.2071 13.7683 17.9585 14.3223 18.5125C14.8763 19.0665 15.6277 19.3778 16.4112 19.3778C17.1947 19.3778 17.9461 19.0665 18.5001 18.5125C19.0541 17.9585 19.3653 17.2071 19.3653 16.4236C19.3653 15.6401 19.0541 14.8887 18.5001 14.3347C17.9461 13.7807 17.1947 13.4695 16.4112 13.4695ZM12.1441 16.4236C12.1441 15.2919 12.5936 14.2066 13.3939 13.4063C14.1941 12.6061 15.2795 12.1565 16.4112 12.1565C17.5429 12.1565 18.6282 12.6061 19.4285 13.4063C20.2287 14.2066 20.6783 15.2919 20.6783 16.4236C20.6783 17.5553 20.2287 18.6407 19.4285 19.4409C18.6282 20.2412 17.5429 20.6907 16.4112 20.6907C15.2795 20.6907 14.1941 20.2412 13.3939 19.4409C12.5936 18.6407 12.1441 17.5553 12.1441 16.4236ZM20.9671 12.8524C21.2283 12.8524 21.4788 12.7486 21.6634 12.564C21.8481 12.3793 21.9519 12.1288 21.9519 11.8677C21.9519 11.6065 21.8481 11.356 21.6634 11.1714C21.4788 10.9867 21.2283 10.8829 20.9671 10.8829C20.706 10.8829 20.4555 10.9867 20.2708 11.1714C20.0862 11.356 19.9824 11.6065 19.9824 11.8677C19.9824 12.1288 20.0862 12.3793 20.2708 12.564C20.4555 12.7486 20.706 12.8524 20.9671 12.8524Z" fill="white"/>
</svg>
