<svg width="34" height="33" viewBox="0 0 34 33" fill="none" xmlns="http://www.w3.org/2000/svg">
<rect x="0.953125" y="0.0117188" width="32.8239" height="32.8239" rx="16.412" fill="#9EADB9"/>
<path d="M13.216 10.6791C13.2158 11.1144 13.0426 11.5318 12.7347 11.8394C12.4268 12.147 12.0092 12.3197 11.574 12.3195C11.1387 12.3193 10.7213 12.1462 10.4137 11.8382C10.1061 11.5303 9.93338 11.1128 9.93359 10.6775C9.93381 10.2422 10.1069 9.82485 10.4149 9.51722C10.7228 9.20959 11.1403 9.03689 11.5756 9.03711C12.0109 9.03733 12.4282 9.21045 12.7359 9.51838C13.0435 9.82632 13.2162 10.2439 13.216 10.6791ZM13.2652 13.5348H9.98283V23.8087H13.2652V13.5348ZM18.4514 13.5348H15.1854V23.8087H18.4186V18.4174C18.4186 15.414 22.3328 15.135 22.3328 18.4174V23.8087H25.5742V17.3014C25.5742 12.2383 19.7808 12.427 18.4186 14.9134L18.4514 13.5348Z" fill="white"/>
</svg>
