<svg width="34" height="33" viewBox="0 0 34 33" fill="none" xmlns="http://www.w3.org/2000/svg">
<rect x="0.907227" y="0.0117188" width="32.8239" height="32.8239" rx="16.412" fill="#9EADB9"/>
<path d="M20.1107 23.8089V18.0926H22.0251L22.3115 15.8704H20.1107V14.4524C20.1107 13.809 20.2895 13.37 21.2119 13.37H22.3886V11.3825C21.819 11.3221 21.2464 11.2928 20.6736 11.2947C18.9774 11.2947 17.8163 12.3303 17.8163 14.2325V15.8704H15.8977V18.0926H17.8163V23.8089H10.7542C10.5366 23.8089 10.3278 23.7224 10.1739 23.5685C10.02 23.4146 9.93359 23.2059 9.93359 22.9883V9.85868C9.93359 9.64105 10.02 9.43233 10.1739 9.27843C10.3278 9.12454 10.5366 9.03809 10.7542 9.03809H23.8838C24.1014 9.03809 24.3101 9.12454 24.464 9.27843C24.6179 9.43233 24.7044 9.64105 24.7044 9.85868V22.9883C24.7044 23.2059 24.6179 23.4146 24.464 23.5685C24.3101 23.7224 24.1014 23.8089 23.8838 23.8089H20.1107Z" fill="white"/>
</svg>
