<svg width="34" height="33" viewBox="0 0 34 33" fill="none" xmlns="http://www.w3.org/2000/svg">
<rect x="0.90625" y="0.0117188" width="32.8239" height="32.8239" rx="16.412" fill="#9EADB9"/>
<path d="M20.1087 23.8089V18.0926H22.0232L22.3095 15.8704H20.1087V14.4524C20.1087 13.809 20.2876 13.37 21.2099 13.37H22.3867V11.3825C21.817 11.3221 21.2445 11.2928 20.6716 11.2947C18.9755 11.2947 17.8143 12.3303 17.8143 14.2325V15.8704H15.8957V18.0926H17.8143V23.8089H10.7522C10.5346 23.8089 10.3259 23.7224 10.172 23.5685C10.0181 23.4146 9.93164 23.2059 9.93164 22.9883V9.85868C9.93164 9.64105 10.0181 9.43233 10.172 9.27843C10.3259 9.12454 10.5346 9.03809 10.7522 9.03809H23.8818C24.0994 9.03809 24.3082 9.12454 24.4621 9.27843C24.6159 9.43233 24.7024 9.64105 24.7024 9.85868V22.9883C24.7024 23.2059 24.6159 23.4146 24.4621 23.5685C24.3082 23.7224 24.0994 23.8089 23.8818 23.8089H20.1087Z" fill="white"/>
</svg>
