<svg width="33" height="33" viewBox="0 0 33 33" fill="none" xmlns="http://www.w3.org/2000/svg">
<rect y="0.0117188" width="32.8239" height="32.8239" rx="16.412" fill="#9EADB9"/>
<path fill-rule="evenodd" clip-rule="evenodd" d="M23.5143 23.5252C23.9423 23.0958 24.2784 22.5798 24.4977 22.014C24.7077 21.4704 24.8522 20.8507 24.8942 19.9421C24.9362 19.0322 24.9467 18.7407 24.9467 16.4234C24.9467 14.106 24.9362 13.8145 24.8942 12.9047C24.8522 11.9961 24.7077 11.3764 24.4977 10.8328C24.2833 10.2634 23.9472 9.7477 23.513 9.3216C23.0868 8.8874 22.5711 8.55135 22.0017 8.33688C21.4582 8.12681 20.8385 7.98238 19.9299 7.94037C19.02 7.89835 18.7285 7.88916 16.4112 7.88916C14.0938 7.88916 13.8023 7.89835 12.8924 7.94168C11.9839 7.98107 11.3642 8.12549 10.8206 8.33688C10.2515 8.55184 9.7359 8.88782 9.30939 9.3216C8.87562 9.7481 8.53963 10.2637 8.32467 10.8328C8.1146 11.3764 7.97017 11.9961 7.92816 12.9047C7.88614 13.8145 7.87695 14.106 7.87695 16.4234C7.87695 18.7407 7.88614 19.0322 7.92947 19.9421C7.96886 20.8507 8.11329 21.4704 8.32467 22.014C8.54 22.5838 8.87611 23.0985 9.30939 23.5252C9.7361 23.9584 10.2521 24.2946 10.8206 24.5099C11.3642 24.72 11.9839 24.8644 12.8924 24.9064C13.8023 24.9471 14.0938 24.9576 16.4112 24.9576C18.7285 24.9576 19.02 24.9471 19.9299 24.9051C20.8385 24.8657 21.4582 24.7213 22.0017 24.5099C22.5686 24.2905 23.0846 23.9551 23.5143 23.5252ZM9.18991 15.419V17.4278C9.18728 18.5057 9.18728 18.7854 9.21617 19.3972C9.25031 20.1666 9.29232 20.7312 9.42099 21.1566C9.54441 21.5662 9.68227 21.9838 10.1339 22.4853C10.5856 22.9882 11.0202 23.2153 11.5742 23.3834C12.1296 23.5501 12.8268 23.5856 13.4321 23.6131C14.1174 23.6446 14.3905 23.6446 15.8295 23.6446H17.3828C18.4883 23.646 18.7666 23.6473 19.3863 23.6184C20.1544 23.5829 20.719 23.5409 21.1457 23.4136C21.554 23.2901 21.9715 23.151 22.4731 22.7006C22.976 22.249 23.2031 21.8131 23.3712 21.259C23.5379 20.7049 23.5747 20.0078 23.6022 19.4025C23.6324 18.7171 23.6324 18.4453 23.6324 17.0103V15.8417C23.6324 14.4027 23.6324 14.131 23.6022 13.4443C23.5747 12.839 23.5379 12.1418 23.3712 11.5878C23.2044 11.0324 22.9773 10.5978 22.4731 10.1461C21.9702 9.69448 21.554 9.55662 21.1457 9.4332C20.719 9.30584 20.1544 9.26251 19.3863 9.22838C18.7189 9.20095 18.0507 9.19219 17.3828 9.20212H15.8295C14.3905 9.20212 14.1174 9.20212 13.4321 9.23232C12.8268 9.25989 12.1296 9.29665 11.5742 9.4634C11.0202 9.63145 10.5856 9.8586 10.1339 10.3615C9.68227 10.8643 9.5431 11.2805 9.42099 11.6902C9.29232 12.1156 9.25031 12.6801 9.21617 13.4495C9.18728 14.0614 9.18728 14.341 9.18991 15.419ZM16.4112 13.4692C15.6277 13.4692 14.8763 13.7805 14.3223 14.3345C13.7683 14.8885 13.457 15.6399 13.457 16.4234C13.457 17.2069 13.7683 17.9583 14.3223 18.5123C14.8763 19.0663 15.6277 19.3775 16.4112 19.3775C17.1947 19.3775 17.9461 19.0663 18.5001 18.5123C19.0541 17.9583 19.3653 17.2069 19.3653 16.4234C19.3653 15.6399 19.0541 14.8885 18.5001 14.3345C17.9461 13.7805 17.1947 13.4692 16.4112 13.4692ZM12.1441 16.4234C12.1441 15.2917 12.5936 14.2063 13.3939 13.4061C14.1941 12.6058 15.2795 12.1563 16.4112 12.1563C17.5429 12.1563 18.6282 12.6058 19.4285 13.4061C20.2287 14.2063 20.6783 15.2917 20.6783 16.4234C20.6783 17.5551 20.2287 18.6404 19.4285 19.4407C18.6282 20.2409 17.5429 20.6905 16.4112 20.6905C15.2795 20.6905 14.1941 20.2409 13.3939 19.4407C12.5936 18.6404 12.1441 17.5551 12.1441 16.4234ZM20.9671 12.8521C21.2283 12.8521 21.4788 12.7484 21.6634 12.5637C21.8481 12.379 21.9519 12.1286 21.9519 11.8674C21.9519 11.6063 21.8481 11.3558 21.6634 11.1711C21.4788 10.9864 21.2283 10.8827 20.9671 10.8827C20.706 10.8827 20.4555 10.9864 20.2708 11.1711C20.0862 11.3558 19.9824 11.6063 19.9824 11.8674C19.9824 12.1286 20.0862 12.379 20.2708 12.5637C20.4555 12.7484 20.706 12.8521 20.9671 12.8521Z" fill="white"/>
</svg>
