<svg width="34" height="33" viewBox="0 0 34 33" fill="none" xmlns="http://www.w3.org/2000/svg">
<rect x="0.953125" y="0.0117188" width="32.8239" height="32.8239" rx="16.412" fill="#9EADB9"/>
<path d="M13.2121 10.6791C13.2119 11.1144 13.0387 11.5318 12.7308 11.8394C12.4229 12.147 12.0053 12.3197 11.5701 12.3195C11.1348 12.3193 10.7174 12.1462 10.4098 11.8382C10.1022 11.5303 9.92947 11.1128 9.92969 10.6775C9.92991 10.2422 10.103 9.82485 10.411 9.51722C10.7189 9.20959 11.1364 9.03689 11.5717 9.03711C12.007 9.03733 12.4243 9.21045 12.732 9.51838C13.0396 9.82632 13.2123 10.2439 13.2121 10.6791ZM13.2613 13.5348H9.97892V23.8087H13.2613V13.5348ZM18.4475 13.5348H15.1815V23.8087H18.4147V18.4174C18.4147 15.414 22.3289 15.135 22.3289 18.4174V23.8087H25.5703V17.3014C25.5703 12.2383 19.7769 12.427 18.4147 14.9134L18.4475 13.5348Z" fill="white"/>
</svg>
