<svg width="34" height="33" viewBox="0 0 34 33" fill="none" xmlns="http://www.w3.org/2000/svg">
<rect x="0.953125" y="0.0117188" width="32.8239" height="32.8239" rx="16.412" fill="#9EADB9"/>
<path d="M13.2121 10.6794C13.2119 11.1146 13.0387 11.532 12.7308 11.8396C12.4229 12.1473 12.0053 12.32 11.5701 12.3197C11.1348 12.3195 10.7174 12.1464 10.4098 11.8385C10.1022 11.5305 9.92947 11.113 9.92969 10.6777C9.92991 10.2425 10.103 9.8251 10.411 9.51747C10.7189 9.20984 11.1364 9.03714 11.5717 9.03735C12.007 9.03757 12.4243 9.21069 12.732 9.51863C13.0396 9.82657 13.2123 10.2441 13.2121 10.6794ZM13.2613 13.5351H9.97892V23.8089H13.2613V13.5351ZM18.4475 13.5351H15.1815V23.8089H18.4147V18.4176C18.4147 15.4142 22.3289 15.1352 22.3289 18.4176V23.8089H25.5703V17.3016C25.5703 12.2385 19.7769 12.4272 18.4147 14.9137L18.4475 13.5351Z" fill="white"/>
</svg>
