<svg width="33" height="33" viewBox="0 0 33 33" fill="none" xmlns="http://www.w3.org/2000/svg">
<rect y="0.0117188" width="32.8239" height="32.8239" rx="16.412" fill="#9EADB9"/>
<path fill-rule="evenodd" clip-rule="evenodd" d="M23.5162 23.5252C23.9442 23.0958 24.2804 22.5798 24.4996 22.014C24.7097 21.4704 24.8541 20.8507 24.8961 19.9421C24.9382 19.0322 24.9487 18.7407 24.9487 16.4234C24.9487 14.106 24.9382 13.8145 24.8961 12.9047C24.8541 11.9961 24.7097 11.3764 24.4996 10.8328C24.2852 10.2634 23.9492 9.7477 23.5149 9.3216C23.0887 8.8874 22.573 8.55135 22.0037 8.33688C21.4601 8.12681 20.8404 7.98238 19.9319 7.94037C19.022 7.89835 18.7305 7.88916 16.4131 7.88916C14.0958 7.88916 13.8043 7.89835 12.8944 7.94168C11.9858 7.98107 11.3661 8.12549 10.8226 8.33688C10.2535 8.55184 9.73785 8.88782 9.31134 9.3216C8.87757 9.7481 8.54159 10.2637 8.32662 10.8328C8.11655 11.3764 7.97213 11.9961 7.93011 12.9047C7.8881 13.8145 7.87891 14.106 7.87891 16.4234C7.87891 18.7407 7.8881 19.0322 7.93142 19.9421C7.97081 20.8507 8.11524 21.4704 8.32662 22.014C8.54195 22.5838 8.87807 23.0985 9.31134 23.5252C9.73805 23.9584 10.254 24.2946 10.8226 24.5099C11.3661 24.72 11.9858 24.8644 12.8944 24.9064C13.8043 24.9471 14.0958 24.9576 16.4131 24.9576C18.7305 24.9576 19.022 24.9471 19.9319 24.9051C20.8404 24.8657 21.4601 24.7213 22.0037 24.5099C22.5705 24.2905 23.0866 23.9551 23.5162 23.5252ZM9.19186 15.419V17.4278C9.18924 18.5057 9.18924 18.7854 9.21812 19.3972C9.25226 20.1666 9.29427 20.7312 9.42294 21.1566C9.54636 21.5662 9.68422 21.9838 10.1359 22.4853C10.5875 22.9882 11.0221 23.2153 11.5762 23.3834C12.1316 23.5501 12.8288 23.5856 13.434 23.6131C14.1194 23.6446 14.3925 23.6446 15.8315 23.6446H17.3847C18.4902 23.646 18.7686 23.6473 19.3883 23.6184C20.1564 23.5829 20.7209 23.5409 21.1476 23.4136C21.556 23.2901 21.9735 23.151 22.475 22.7006C22.9779 22.249 23.2051 21.8131 23.3731 21.259C23.5399 20.7049 23.5766 20.0078 23.6042 19.4025C23.6344 18.7171 23.6344 18.4453 23.6344 17.0103V15.8417C23.6344 14.4027 23.6344 14.131 23.6042 13.4443C23.5766 12.839 23.5399 12.1418 23.3731 11.5878C23.2064 11.0324 22.9792 10.5978 22.475 10.1461C21.9722 9.69448 21.556 9.55662 21.1476 9.4332C20.7209 9.30584 20.1564 9.26251 19.3883 9.22838C18.7208 9.20095 18.0527 9.19219 17.3847 9.20212H15.8315C14.3925 9.20212 14.1194 9.20212 13.434 9.23232C12.8288 9.25989 12.1316 9.29665 11.5762 9.4634C11.0221 9.63145 10.5875 9.8586 10.1359 10.3615C9.68422 10.8643 9.54505 11.2805 9.42294 11.6902C9.29427 12.1156 9.25226 12.6801 9.21812 13.4495C9.18924 14.0614 9.18924 14.341 9.19186 15.419ZM16.4131 13.4692C15.6296 13.4692 14.8782 13.7805 14.3242 14.3345C13.7702 14.8885 13.459 15.6399 13.459 16.4234C13.459 17.2069 13.7702 17.9583 14.3242 18.5123C14.8782 19.0663 15.6296 19.3775 16.4131 19.3775C17.1966 19.3775 17.948 19.0663 18.502 18.5123C19.056 17.9583 19.3673 17.2069 19.3673 16.4234C19.3673 15.6399 19.056 14.8885 18.502 14.3345C17.948 13.7805 17.1966 13.4692 16.4131 13.4692ZM12.146 16.4234C12.146 15.2917 12.5956 14.2063 13.3958 13.4061C14.1961 12.6058 15.2814 12.1563 16.4131 12.1563C17.5448 12.1563 18.6302 12.6058 19.4304 13.4061C20.2307 14.2063 20.6802 15.2917 20.6802 16.4234C20.6802 17.5551 20.2307 18.6404 19.4304 19.4407C18.6302 20.2409 17.5448 20.6905 16.4131 20.6905C15.2814 20.6905 14.1961 20.2409 13.3958 19.4407C12.5956 18.6404 12.146 17.5551 12.146 16.4234ZM20.9691 12.8521C21.2302 12.8521 21.4807 12.7484 21.6654 12.5637C21.8501 12.379 21.9538 12.1286 21.9538 11.8674C21.9538 11.6063 21.8501 11.3558 21.6654 11.1711C21.4807 10.9864 21.2302 10.8827 20.9691 10.8827C20.7079 10.8827 20.4575 10.9864 20.2728 11.1711C20.0881 11.3558 19.9844 11.6063 19.9844 11.8674C19.9844 12.1286 20.0881 12.379 20.2728 12.5637C20.4575 12.7484 20.7079 12.8521 20.9691 12.8521Z" fill="white"/>
</svg>
