<svg width="36" height="32" viewBox="0 0 36 32" fill="none" xmlns="http://www.w3.org/2000/svg">
<g clip-path="url(#clip0_10502_6199)">
<path d="M24.9996 2H10.9996C10.4371 2 10.0371 2.45625 10.0559 2.9375C10.4434 13.1812 12.8621 17.8875 14.8121 20.0312C15.7809 21.1 16.6809 21.5812 17.2684 21.8C17.5684 21.9125 17.7996 21.9625 17.9309 21.9875C17.9621 21.9937 17.9871 21.9937 18.0059 22C18.0246 22 18.0496 21.9937 18.0809 21.9875C18.2121 21.9687 18.4434 21.9187 18.7434 21.8C19.3309 21.5812 20.2309 21.0938 21.1996 20.0312C23.1496 17.8937 25.5621 13.1812 25.9559 2.9375C25.9746 2.45 25.5684 2 25.0121 2H24.9996ZM10.9996 0H24.9996C26.6559 0 28.0059 1.3625 27.9434 3.0125C27.9309 3.34375 27.9184 3.675 27.8996 4H32.9996C34.6246 4 36.0809 5.35 35.8871 7.10625C35.2559 12.9812 32.0184 16.9938 28.5059 19.6C25.0121 22.1875 21.1871 23.4313 19.1746 23.7812L19.1684 23.7625C19.1121 23.7813 19.0559 23.8 18.9996 23.8125V29.9937H24.9996C25.5496 29.9937 25.9996 30.4437 25.9996 30.9937C25.9996 31.5437 25.5496 31.9937 24.9996 31.9937H17.9996H10.9996C10.4496 31.9937 9.9996 31.5437 9.9996 30.9937C9.9996 30.4437 10.4496 29.9937 10.9996 29.9937H16.9996V23.8125C16.9434 23.7937 16.8871 23.7813 16.8309 23.7625L16.8246 23.7812C14.8121 23.425 10.9871 22.1875 7.49335 19.6C3.98085 17 0.743352 12.9812 0.112102 7.10625C-0.0816479 5.35 1.3746 4 2.9996 4H8.0996C8.08085 3.675 8.06835 3.35 8.05585 3.0125C7.99335 1.3625 9.34335 0 10.9996 0ZM23.6121 20.2C24.8121 19.6313 26.0871 18.9062 27.3121 17.9937C30.5059 15.625 33.3371 12.0688 33.8996 6.89375C33.9496 6.45625 33.5809 6 32.9996 6H27.7621C27.1496 13.2812 25.4371 17.6188 23.6121 20.2ZM8.2371 6H2.9996C2.41835 6 2.0496 6.45625 2.0996 6.89375C2.65585 12.075 5.49335 15.6312 8.6871 17.9937C9.9121 18.9062 11.1871 19.6313 12.3871 20.2C10.5621 17.6188 8.84335 13.2812 8.2371 6ZM19.3496 5.96875L20.1309 7.5625L21.8934 7.81875C23.1246 8 23.6121 9.5125 22.7246 10.375L21.4496 11.6187L21.7496 13.375C21.9621 14.6 20.6746 15.5375 19.5746 14.9563L17.9996 14.1313L16.4246 14.9625C15.3246 15.5437 14.0371 14.6063 14.2496 13.3813L14.5496 11.625L13.2746 10.3813C12.3871 9.5125 12.8746 8 14.1059 7.825L15.8684 7.56875L16.6559 5.96875C17.2059 4.85625 18.7934 4.85625 19.3434 5.96875H19.3496ZM17.5496 8.6875C17.3309 9.13125 16.9059 9.4375 16.4184 9.50625L15.3996 9.65625L16.1309 10.375C16.4871 10.7188 16.6434 11.2187 16.5621 11.7L16.3871 12.7188L17.2996 12.2375C17.7371 12.0063 18.2559 12.0063 18.6934 12.2375L19.6059 12.7188L19.4371 11.7C19.3559 11.2125 19.5121 10.7188 19.8684 10.375L20.6059 9.65625L19.5871 9.50625C19.0996 9.4375 18.6746 9.13125 18.4559 8.6875L17.9996 7.7625L17.5434 8.6875H17.5496Z" fill="#187BDC"/>
</g>
<defs>
<clipPath id="clip0_10502_6199">
<rect width="36" height="32" fill="white"/>
</clipPath>
</defs>
</svg>
