<svg width="28" height="89" viewBox="0 0 28 89" fill="none" xmlns="http://www.w3.org/2000/svg">
<path d="M27.7031 0.290625C28.0906 0.678125 28.0906 1.31563 27.7031 1.70313L10.7031 18.7031C10.3156 19.0906 9.67812 19.0906 9.29062 18.7031L0.290625 9.70312C-0.096875 9.31563 -0.096875 8.67812 0.290625 8.29062C0.678125 7.90312 1.31563 7.90312 1.70312 8.29062L9.99687 16.5844L26.2906 0.290625C26.6781 -0.096875 27.3156 -0.096875 27.7031 0.290625Z" fill="#187BDC"/>
<path d="M27.7031 35.2877C28.0906 35.6752 28.0906 36.3127 27.7031 36.7002L10.7031 53.7002C10.3156 54.0877 9.67812 54.0877 9.29062 53.7002L0.290625 44.7002C-0.096875 44.3127 -0.096875 43.6752 0.290625 43.2877C0.678125 42.9002 1.31563 42.9002 1.70312 43.2877L9.99687 51.5814L26.2906 35.2877C26.6781 34.9002 27.3156 34.9002 27.7031 35.2877Z" fill="#187BDC"/>
<path d="M27.7031 70.2877C28.0906 70.6752 28.0906 71.3127 27.7031 71.7002L10.7031 88.7002C10.3156 89.0877 9.67812 89.0877 9.29062 88.7002L0.290625 79.7002C-0.096875 79.3127 -0.096875 78.6752 0.290625 78.2877C0.678125 77.9002 1.31563 77.9002 1.70312 78.2877L9.99687 86.5814L26.2906 70.2877C26.6781 69.9002 27.3156 69.9002 27.7031 70.2877Z" fill="#187BDC"/>
</svg>
