<svg width="111" height="111" viewBox="0 0 111 111" fill="none" xmlns="http://www.w3.org/2000/svg">
<g style="mix-blend-mode:hard-light" opacity="0.25">
<circle cx="55.5" cy="55.5" r="55.5" fill="#0459FF"/>
</g>
<g filter="url(#filter0_d_10502_6273)">
<path d="M48.6022 63.418C48.0842 62.752 47.4367 61.4015 46.3082 59.718C45.6607 58.793 44.0697 57.0355 43.5887 56.129C43.242 55.5781 43.1414 54.9073 43.3112 54.279C43.6016 53.0843 44.7349 52.2917 45.9567 52.429C46.9017 52.6188 47.7702 53.082 48.4542 53.761C48.9319 54.2108 49.3712 54.6997 49.7677 55.2225C50.0637 55.5925 50.1377 55.7405 50.4707 56.166C50.8037 56.5915 51.0257 57.017 50.8592 56.388C50.7297 55.463 50.5077 53.909 50.1932 52.5215C49.9527 51.467 49.8972 51.3005 49.6752 50.505C49.4532 49.7095 49.3237 49.0435 49.0832 48.137C48.8634 47.2463 48.6905 46.3447 48.5652 45.436C48.3321 44.2736 48.5017 43.0665 49.0462 42.0135C49.6926 41.4055 50.6408 41.245 51.4512 41.6065C52.2663 42.2083 52.8741 43.0488 53.1902 44.0115C53.6751 45.1962 53.9986 46.4406 54.1522 47.7115C54.4482 49.5615 55.0217 52.2625 55.0402 52.8175C55.0402 52.133 54.9107 50.69 55.0402 50.0425C55.1685 49.3674 55.6377 48.8072 56.2797 48.5625C56.8307 48.3934 57.4135 48.3554 57.9817 48.4515C58.5553 48.5714 59.0634 48.9013 59.4062 49.3765C59.8349 50.4557 60.0727 51.6013 60.1092 52.762C60.1588 51.7455 60.3327 50.739 60.6272 49.765C60.9364 49.3294 61.3878 49.0153 61.9037 48.877C62.5153 48.7651 63.1421 48.7651 63.7537 48.877C64.2553 49.0446 64.694 49.3608 65.0117 49.7835C65.4035 50.7646 65.6407 51.8006 65.7147 52.8545C65.7147 53.1135 65.8442 52.133 66.2512 51.4855C66.4627 50.8576 66.9932 50.3902 67.6427 50.2594C68.2922 50.1286 68.9622 50.3543 69.4002 50.8514C69.8382 51.3485 69.9777 52.0416 69.7662 52.6695C69.7662 53.872 69.7662 53.8165 69.7662 54.6305C69.7662 55.4445 69.7662 56.166 69.7662 56.8505C69.6988 57.933 69.5504 59.0091 69.3222 60.0695C69.0003 61.0076 68.5522 61.8976 67.9902 62.715C67.092 63.7139 66.3498 64.8428 65.7887 66.0635C65.6495 66.6699 65.5874 67.2915 65.6037 67.9135C65.6019 68.4881 65.6765 69.0605 65.8257 69.6155C65.0693 69.6954 64.3066 69.6954 63.5502 69.6155C62.8287 69.5045 61.9407 68.0615 61.7002 67.6175C61.5812 67.3791 61.3377 67.2284 61.0712 67.2284C60.8048 67.2284 60.5612 67.3791 60.4422 67.6175C60.0352 68.3205 59.1287 69.597 58.4997 69.671C57.2602 69.819 54.7072 69.671 52.6907 69.671C52.6907 69.671 53.0237 67.821 52.2652 67.155C51.5067 66.489 50.7297 65.712 50.1562 65.194L48.6022 63.418Z" fill="white"/>
<path fill-rule="evenodd" clip-rule="evenodd" d="M48.6022 63.418C48.0842 62.752 47.4367 61.4015 46.3082 59.718C45.6607 58.793 44.0697 57.0355 43.5887 56.129C43.242 55.5781 43.1414 54.9073 43.3112 54.279C43.6016 53.0843 44.7349 52.2917 45.9567 52.429C46.9017 52.6188 47.7702 53.082 48.4542 53.761C48.9319 54.2108 49.3712 54.6997 49.7677 55.2225C50.0637 55.5925 50.1377 55.7405 50.4707 56.166C50.8037 56.5915 51.0257 57.017 50.8592 56.388C50.7297 55.463 50.5077 53.909 50.1932 52.5215C49.9527 51.467 49.8972 51.3005 49.6752 50.505C49.4532 49.7095 49.3237 49.0435 49.0832 48.137C48.8634 47.2463 48.6905 46.3447 48.5652 45.436C48.3321 44.2736 48.5017 43.0665 49.0462 42.0135C49.6926 41.4055 50.6408 41.245 51.4512 41.6065C52.2663 42.2083 52.8741 43.0488 53.1902 44.0115C53.6751 45.1962 53.9986 46.4406 54.1522 47.7115C54.4482 49.5615 55.0217 52.2625 55.0402 52.8175C55.0402 52.133 54.9107 50.69 55.0402 50.0425C55.1685 49.3674 55.6377 48.8072 56.2797 48.5625C56.8307 48.3934 57.4135 48.3554 57.9817 48.4515C58.5553 48.5714 59.0634 48.9013 59.4062 49.3765C59.8349 50.4557 60.0727 51.6013 60.1092 52.762C60.1588 51.7455 60.3327 50.739 60.6272 49.765C60.9364 49.3294 61.3878 49.0153 61.9037 48.877C62.5153 48.7651 63.1421 48.7651 63.7537 48.877C64.2553 49.0446 64.694 49.3608 65.0117 49.7835C65.4035 50.7646 65.6407 51.8006 65.7147 52.8545C65.7147 53.1135 65.8442 52.133 66.2512 51.4855C66.4627 50.8576 66.9932 50.3902 67.6427 50.2594C68.2922 50.1286 68.9622 50.3543 69.4002 50.8514C69.8382 51.3485 69.9777 52.0416 69.7662 52.6695C69.7662 53.872 69.7662 53.8165 69.7662 54.6305C69.7662 55.4445 69.7662 56.166 69.7662 56.8505C69.6988 57.933 69.5504 59.0091 69.3222 60.0695C69.0003 61.0076 68.5522 61.8976 67.9902 62.715C67.092 63.7139 66.3498 64.8428 65.7887 66.0635C65.6495 66.6699 65.5874 67.2915 65.6037 67.9135C65.6019 68.4881 65.6765 69.0605 65.8257 69.6155C65.0693 69.6954 64.3066 69.6954 63.5502 69.6155C62.8287 69.5045 61.9407 68.0615 61.7002 67.6175C61.5812 67.3791 61.3377 67.2284 61.0712 67.2284C60.8048 67.2284 60.5612 67.3791 60.4422 67.6175C60.0352 68.3205 59.1287 69.597 58.4997 69.671C57.2602 69.819 54.7072 69.671 52.6907 69.671C52.6907 69.671 53.0237 67.821 52.2652 67.155C51.5067 66.489 50.7297 65.712 50.1562 65.194L48.6022 63.418Z" stroke="#2B2F40" stroke-width="1.3875" stroke-linecap="round" stroke-linejoin="round"/>
<path d="M64.2879 64.428V58.0422C64.2879 57.66 63.9773 57.3501 63.5941 57.3501C63.211 57.3501 62.9004 57.66 62.9004 58.0422V64.428C62.9004 64.8102 63.211 65.1201 63.5941 65.1201C63.9773 65.1201 64.2879 64.8102 64.2879 64.428Z" fill="#2B2F40"/>
<path d="M60.6257 64.4257L60.5887 58.0366C60.5865 57.6553 60.2741 57.3479 59.8909 57.3501C59.5078 57.3523 59.199 57.6632 59.2012 58.0445L59.2382 64.4336C59.2404 64.8149 59.5528 65.1223 59.9359 65.1201C60.3191 65.1179 60.6279 64.807 60.6257 64.4257Z" fill="#2B2F40"/>
<path d="M55.502 58.0512L55.539 64.4271C55.5412 64.8121 55.8536 65.1223 56.2367 65.1201C56.6199 65.1178 56.9287 64.8039 56.9264 64.419L56.8894 58.0431C56.8872 57.6581 56.5748 57.3479 56.1917 57.3501C55.8085 57.3524 55.4997 57.6663 55.502 58.0512Z" fill="#2B2F40"/>
</g>
<defs>
<filter id="filter0_d_10502_6273" x="41.0571" y="40.7217" width="30.9795" height="33.039" filterUnits="userSpaceOnUse" color-interpolation-filters="sRGB">
<feFlood flood-opacity="0" result="BackgroundImageFix"/>
<feColorMatrix in="SourceAlpha" type="matrix" values="0 0 0 0 0 0 0 0 0 0 0 0 0 0 0 0 0 0 127 0" result="hardAlpha"/>
<feOffset dy="1.85"/>
<feGaussianBlur stdDeviation="0.74"/>
<feColorMatrix type="matrix" values="0 0 0 0 0 0 0 0 0 0 0 0 0 0 0 0 0 0 0.5 0"/>
<feBlend mode="normal" in2="BackgroundImageFix" result="effect1_dropShadow_10502_6273"/>
<feBlend mode="normal" in="SourceGraphic" in2="effect1_dropShadow_10502_6273" result="shape"/>
</filter>
</defs>
</svg>
