<svg width="60" height="17" viewBox="0 0 60 17" fill="none" xmlns="http://www.w3.org/2000/svg">
<path d="M7.19975 0.000976693H2.53291C2.37841 0.000878496 2.22896 0.0563851 2.11148 0.157495C1.994 0.258605 1.91621 0.39867 1.89214 0.552454L0.00466323 12.6114C-0.00401411 12.6673 -0.000552669 12.7245 0.0148075 12.779C0.0301677 12.8335 0.057062 12.884 0.0936398 12.927C0.130218 12.97 0.175609 13.0045 0.226689 13.0281C0.27777 13.0517 0.333324 13.0639 0.389529 13.0638H2.61752C2.77212 13.0639 2.92165 13.0083 3.03915 12.9071C3.15664 12.8058 3.23436 12.6656 3.25828 12.5117L3.76734 9.25919C3.79125 9.1054 3.86887 8.96526 3.98622 8.86403C4.10357 8.7628 4.25294 8.70712 4.40742 8.70703H5.88479C8.95894 8.70703 10.7332 7.208 11.1965 4.23745C11.4053 2.93783 11.2054 1.91671 10.6014 1.20157C9.93817 0.416303 8.76173 0.000976693 7.19975 0.000976693ZM7.73815 4.40523C7.48294 6.09267 6.20347 6.09267 4.9663 6.09267H4.26207L4.75612 2.94127C4.77059 2.84907 4.81723 2.7651 4.88766 2.70447C4.95808 2.64384 5.04768 2.61052 5.14031 2.61052H5.46308C6.30582 2.61052 7.1008 2.61052 7.5116 3.09461C7.75658 3.38342 7.83164 3.81249 7.73815 4.40523ZM21.1498 4.35091H18.915C18.8223 4.35091 18.7327 4.38422 18.6623 4.44485C18.5919 4.50549 18.5452 4.58946 18.5308 4.68166L18.4318 5.31152L18.2756 5.08323C17.7918 4.37566 16.7129 4.13912 15.6361 4.13912C13.1665 4.13912 11.0573 6.0239 10.6465 8.66783C10.4329 9.9867 10.7366 11.2478 11.479 12.1273C12.16 12.9359 13.1345 13.2729 14.2938 13.2729C16.2837 13.2729 17.3871 11.9836 17.3871 11.9836L17.2875 12.6093C17.2786 12.6653 17.2819 12.7225 17.297 12.777C17.3122 12.8316 17.339 12.8822 17.3754 12.9253C17.4119 12.9684 17.4572 13.0031 17.5082 13.0269C17.5592 13.0507 17.6148 13.0631 17.671 13.0631H19.684C19.8386 13.0632 19.9882 13.0076 20.1056 12.9064C20.2231 12.8051 20.3009 12.6649 20.3248 12.511L21.5326 4.80337C21.5415 4.74754 21.5383 4.69044 21.5231 4.63601C21.508 4.58157 21.4813 4.5311 21.4449 4.48808C21.4085 4.44506 21.3632 4.41051 21.3123 4.38683C21.2613 4.36315 21.2059 4.35089 21.1498 4.35091ZM18.0347 8.73384C17.8191 10.0204 16.8057 10.8841 15.5133 10.8841C14.8643 10.8841 14.3457 10.6743 14.0127 10.2769C13.6824 9.88218 13.5569 9.32039 13.662 8.69465C13.8633 7.4191 14.8937 6.52725 16.1663 6.52725C16.8009 6.52725 17.3168 6.73972 17.6566 7.14061C17.9972 7.54562 18.1323 8.11085 18.0347 8.73384ZM33.052 4.35091H30.8062C30.7003 4.35108 30.5961 4.37728 30.5025 4.42725C30.4089 4.47722 30.3288 4.54944 30.2692 4.63765L27.1718 9.23512L25.8589 4.81712C25.8186 4.68237 25.7364 4.56428 25.6243 4.48031C25.5122 4.39635 25.3763 4.35097 25.2366 4.35091H23.0298C22.9678 4.35074 22.9067 4.36549 22.8516 4.39392C22.7964 4.42235 22.7488 4.46364 22.7127 4.51436C22.6766 4.56508 22.653 4.62375 22.644 4.68551C22.6349 4.74726 22.6406 4.8103 22.6606 4.86938L25.1342 12.1844L22.8087 15.4925C22.7673 15.5512 22.7428 15.6202 22.7378 15.6919C22.7328 15.7637 22.7475 15.8355 22.7803 15.8994C22.813 15.9633 22.8626 16.0169 22.9236 16.0543C22.9846 16.0917 23.0546 16.1114 23.126 16.1114H25.369C25.4737 16.1115 25.5769 16.0861 25.6697 16.0372C25.7625 15.9884 25.8422 15.9175 25.9019 15.8308L33.3713 4.96633C33.4118 4.90755 33.4356 4.83873 33.44 4.76732C33.4444 4.69591 33.4294 4.62464 33.3965 4.56123C33.3636 4.49783 33.3141 4.44471 33.2533 4.40763C33.1926 4.37056 33.123 4.35094 33.052 4.35091Z" fill="#253B80"/>
<path d="M40.4889 0.000687577H35.8214C35.667 0.000753207 35.5177 0.0563338 35.4004 0.157429C35.2831 0.258525 35.2054 0.398498 35.1813 0.552165L33.2938 12.6111C33.2851 12.6669 33.2884 12.7241 33.3036 12.7785C33.3189 12.8329 33.3456 12.8834 33.3821 12.9264C33.4185 12.9694 33.4638 13.0039 33.5148 13.0276C33.5658 13.0513 33.6212 13.0635 33.6773 13.0635H36.0725C36.1806 13.0634 36.285 13.0244 36.3671 12.9535C36.4491 12.8827 36.5034 12.7847 36.5202 12.6771L37.0558 9.2589C37.0797 9.10511 37.1574 8.96497 37.2747 8.86374C37.3921 8.76251 37.5414 8.70683 37.6959 8.70674H39.1726C42.2474 8.70674 44.021 7.20771 44.485 4.23716C44.6945 2.93754 44.4932 1.91642 43.8893 1.20128C43.2267 0.416014 42.0509 0.000687577 40.4889 0.000687577ZM41.0273 4.40494C40.7728 6.09238 39.4933 6.09238 38.2555 6.09238H37.5519L38.0467 2.94098C38.0608 2.84878 38.1073 2.76474 38.1777 2.70407C38.248 2.64341 38.3376 2.61012 38.4302 2.61023H38.7529C39.595 2.61023 40.3907 2.61023 40.8015 3.09432C41.0464 3.38313 41.1208 3.81221 41.0273 4.40494ZM54.4383 4.35062H52.2048C52.1122 4.35036 52.0225 4.3836 51.9522 4.44429C51.8818 4.50499 51.8354 4.58911 51.8213 4.68137L51.7224 5.31123L51.5654 5.08294C51.0816 4.37537 50.0034 4.13883 48.9266 4.13883C46.4571 4.13883 44.3485 6.02362 43.9377 8.66754C43.7248 9.98641 44.0271 11.2475 44.7695 12.127C45.4519 12.9356 46.425 13.2726 47.5844 13.2726C49.5742 13.2726 50.6776 11.9833 50.6776 11.9833L50.578 12.609C50.5691 12.6651 50.5724 12.7224 50.5877 12.7771C50.6029 12.8317 50.6298 12.8824 50.6664 12.9255C50.703 12.9687 50.7485 13.0033 50.7997 13.027C50.8508 13.0508 50.9065 13.063 50.9629 13.0629H52.9752C53.1297 13.0628 53.2791 13.0071 53.3964 12.9059C53.5138 12.8046 53.5914 12.6645 53.6153 12.5107L54.8238 4.80308C54.8324 4.74708 54.8288 4.68988 54.8134 4.6354C54.7979 4.58092 54.771 4.53045 54.7343 4.48747C54.6977 4.44448 54.6523 4.40999 54.6012 4.38637C54.5501 4.36275 54.4945 4.35055 54.4383 4.35062ZM51.3232 8.73355C51.1089 10.0201 50.0942 10.8838 48.8018 10.8838C48.1542 10.8838 47.6342 10.674 47.3012 10.2766C46.9709 9.88189 46.8467 9.3201 46.9504 8.69436C47.1531 7.41881 48.1822 6.52696 49.4548 6.52696C50.0894 6.52696 50.6053 6.73944 50.9451 7.14032C51.287 7.54533 51.4221 8.11056 51.3232 8.73355ZM57.073 0.331436L55.1575 12.6111C55.1487 12.6669 55.1521 12.7241 55.1673 12.7785C55.1825 12.8329 55.2093 12.8834 55.2458 12.9264C55.2822 12.9694 55.3275 13.0039 55.3785 13.0276C55.4294 13.0513 55.4849 13.0635 55.541 13.0635H57.4667C57.7867 13.0635 58.0583 12.8298 58.1075 12.5114L59.9963 0.453146C60.0051 0.397252 60.0017 0.340107 59.9865 0.285639C59.9713 0.231172 59.9445 0.180674 59.9081 0.137617C59.8716 0.0945595 59.8264 0.0599639 59.7754 0.0362082C59.7244 0.0124524 59.669 0.000100146 59.6128 0H57.4565C57.3639 0.000330321 57.2745 0.0338648 57.2042 0.0945965C57.1339 0.155328 57.0874 0.239289 57.073 0.331436Z" fill="#179BD7"/>
</svg>
