<svg width="32" height="32" viewBox="0 0 32 32" fill="none" xmlns="http://www.w3.org/2000/svg">
<g clip-path="url(#clip0_10502_6217)">
<path d="M22.8188 2C21.7188 2 20.7 2.5625 20.1187 3.49375L17.3062 8H18H23C24.6562 8 26 6.65625 26 5C26 3.34375 24.6562 2 23 2H22.8188ZM14.6938 8L11.8813 3.49375C11.3 2.5625 10.2812 2 9.18125 2H9C7.34375 2 6 3.34375 6 5C6 6.65625 7.34375 8 9 8H14H14.6938ZM16 6.3125L18.425 2.4375C19.375 0.925 21.0313 0 22.8188 0H23C25.7625 0 28 2.2375 28 5C28 6.125 27.625 7.1625 27 8H29C30.6562 8 32 9.34375 32 11V15C32 16.3062 31.1625 17.4187 30 17.8312V18V28C30 30.2062 28.2062 32 26 32H6C3.79375 32 2 30.2062 2 28V18V17.8312C0.8375 17.4187 0 16.3062 0 15V11C0 9.34375 1.34375 8 3 8H5C4.375 7.1625 4 6.125 4 5C4 2.2375 6.2375 0 9 0H9.18125C10.9687 0 12.6312 0.91875 13.575 2.4375L16 6.3125ZM9 10H3C2.45 10 2 10.45 2 11V15C2 15.55 2.45 16 3 16H4H15V10H14H9ZM17 10V16H28H29C29.55 16 30 15.55 30 15V11C30 10.45 29.55 10 29 10H23H18H17ZM15 18H4V28C4 29.1063 4.89375 30 6 30H15V18ZM17 30H26C27.1063 30 28 29.1063 28 28V18H17V30Z" fill="#187BDC"/>
</g>
<defs>
<clipPath id="clip0_10502_6217">
<rect width="32" height="32" fill="white"/>
</clipPath>
</defs>
</svg>
