<svg width="111" height="111" viewBox="0 0 111 111" fill="none" xmlns="http://www.w3.org/2000/svg">
<g style="mix-blend-mode:hard-light" opacity="0.25">
<circle cx="55.5" cy="55.5" r="55.5" fill="#0459FF"/>
</g>
<g filter="url(#filter0_d_10502_6229)">
<path d="M48.5993 63.418C48.0813 62.752 47.4338 61.4015 46.3053 59.718C45.6578 58.793 44.0668 57.0355 43.5858 56.129C43.2391 55.5781 43.1385 54.9073 43.3083 54.279C43.5987 53.0843 44.732 52.2917 45.9538 52.429C46.8988 52.6188 47.7672 53.082 48.4513 53.761C48.9289 54.2108 49.3683 54.6997 49.7648 55.2225C50.0608 55.5925 50.1348 55.7405 50.4678 56.166C50.8008 56.5915 51.0228 57.017 50.8563 56.388C50.7268 55.463 50.5048 53.909 50.1903 52.5215C49.9498 51.467 49.8943 51.3005 49.6723 50.505C49.4503 49.7095 49.3208 49.0435 49.0803 48.137C48.8605 47.2463 48.6876 46.3447 48.5623 45.436C48.3291 44.2736 48.4988 43.0665 49.0433 42.0135C49.6897 41.4055 50.6379 41.245 51.4483 41.6065C52.2634 42.2083 52.8712 43.0488 53.1873 44.0115C53.6721 45.1962 53.9957 46.4406 54.1493 47.7115C54.4453 49.5615 55.0188 52.2625 55.0373 52.8175C55.0373 52.133 54.9078 50.69 55.0373 50.0425C55.1656 49.3674 55.6348 48.8072 56.2768 48.5625C56.8278 48.3934 57.4106 48.3554 57.9788 48.4515C58.5524 48.5714 59.0604 48.9013 59.4033 49.3765C59.8319 50.4557 60.0698 51.6013 60.1063 52.762C60.1559 51.7455 60.3298 50.739 60.6243 49.765C60.9335 49.3294 61.3849 49.0153 61.9008 48.877C62.5124 48.7651 63.1392 48.7651 63.7508 48.877C64.2523 49.0446 64.6911 49.3608 65.0088 49.7835C65.4006 50.7646 65.6377 51.8006 65.7118 52.8545C65.7118 53.1135 65.8413 52.133 66.2483 51.4855C66.4598 50.8576 66.9902 50.3902 67.6397 50.2594C68.2893 50.1286 68.9592 50.3543 69.3972 50.8514C69.8353 51.3485 69.9748 52.0416 69.7633 52.6695C69.7633 53.872 69.7633 53.8165 69.7633 54.6305C69.7633 55.4445 69.7633 56.166 69.7633 56.8505C69.6959 57.933 69.5475 59.0091 69.3193 60.0695C68.9974 61.0076 68.5493 61.8976 67.9873 62.715C67.089 63.7139 66.3468 64.8428 65.7858 66.0635C65.6466 66.6699 65.5845 67.2915 65.6008 67.9135C65.599 68.4881 65.6736 69.0605 65.8228 69.6155C65.0664 69.6954 64.3037 69.6954 63.5473 69.6155C62.8258 69.5045 61.9378 68.0615 61.6973 67.6175C61.5783 67.3791 61.3348 67.2284 61.0683 67.2284C60.8019 67.2284 60.5583 67.3791 60.4393 67.6175C60.0323 68.3205 59.1258 69.597 58.4968 69.671C57.2573 69.819 54.7043 69.671 52.6878 69.671C52.6878 69.671 53.0208 67.821 52.2623 67.155C51.5038 66.489 50.7268 65.712 50.1533 65.194L48.5993 63.418Z" fill="white"/>
<path fill-rule="evenodd" clip-rule="evenodd" d="M48.5993 63.418C48.0813 62.752 47.4338 61.4015 46.3053 59.718C45.6578 58.793 44.0668 57.0355 43.5858 56.129C43.2391 55.5781 43.1385 54.9073 43.3083 54.279C43.5987 53.0843 44.732 52.2917 45.9538 52.429C46.8988 52.6188 47.7672 53.082 48.4513 53.761C48.9289 54.2108 49.3683 54.6997 49.7648 55.2225C50.0608 55.5925 50.1348 55.7405 50.4678 56.166C50.8008 56.5915 51.0228 57.017 50.8563 56.388C50.7268 55.463 50.5048 53.909 50.1903 52.5215C49.9498 51.467 49.8943 51.3005 49.6723 50.505C49.4503 49.7095 49.3208 49.0435 49.0803 48.137C48.8605 47.2463 48.6876 46.3447 48.5623 45.436C48.3291 44.2736 48.4988 43.0665 49.0433 42.0135C49.6897 41.4055 50.6379 41.245 51.4483 41.6065C52.2634 42.2083 52.8712 43.0488 53.1873 44.0115C53.6721 45.1962 53.9957 46.4406 54.1493 47.7115C54.4453 49.5615 55.0188 52.2625 55.0373 52.8175C55.0373 52.133 54.9078 50.69 55.0373 50.0425C55.1656 49.3674 55.6348 48.8072 56.2768 48.5625C56.8278 48.3934 57.4106 48.3554 57.9788 48.4515C58.5524 48.5714 59.0604 48.9013 59.4033 49.3765C59.8319 50.4557 60.0698 51.6013 60.1063 52.762C60.1559 51.7455 60.3298 50.739 60.6243 49.765C60.9335 49.3294 61.3849 49.0153 61.9008 48.877C62.5124 48.7651 63.1392 48.7651 63.7508 48.877C64.2523 49.0446 64.6911 49.3608 65.0088 49.7835C65.4006 50.7646 65.6377 51.8006 65.7118 52.8545C65.7118 53.1135 65.8413 52.133 66.2483 51.4855C66.4598 50.8576 66.9902 50.3902 67.6397 50.2594C68.2893 50.1286 68.9592 50.3543 69.3972 50.8514C69.8353 51.3485 69.9748 52.0416 69.7633 52.6695C69.7633 53.872 69.7633 53.8165 69.7633 54.6305C69.7633 55.4445 69.7633 56.166 69.7633 56.8505C69.6959 57.933 69.5475 59.0091 69.3193 60.0695C68.9974 61.0076 68.5493 61.8976 67.9873 62.715C67.089 63.7139 66.3468 64.8428 65.7858 66.0635C65.6466 66.6699 65.5845 67.2915 65.6008 67.9135C65.599 68.4881 65.6736 69.0605 65.8228 69.6155C65.0664 69.6954 64.3037 69.6954 63.5473 69.6155C62.8258 69.5045 61.9378 68.0615 61.6973 67.6175C61.5783 67.3791 61.3348 67.2284 61.0683 67.2284C60.8019 67.2284 60.5583 67.3791 60.4393 67.6175C60.0323 68.3205 59.1258 69.597 58.4968 69.671C57.2573 69.819 54.7043 69.671 52.6878 69.671C52.6878 69.671 53.0208 67.821 52.2623 67.155C51.5038 66.489 50.7268 65.712 50.1533 65.194L48.5993 63.418Z" stroke="#2B2F40" stroke-width="1.3875" stroke-linecap="round" stroke-linejoin="round"/>
<path d="M64.2879 64.428V58.0422C64.2879 57.66 63.9773 57.3501 63.5941 57.3501C63.211 57.3501 62.9004 57.66 62.9004 58.0422V64.428C62.9004 64.8102 63.211 65.1201 63.5941 65.1201C63.9773 65.1201 64.2879 64.8102 64.2879 64.428Z" fill="#2B2F40"/>
<path d="M60.6247 64.4257L60.5877 58.0366C60.5855 57.6553 60.2731 57.3479 59.8899 57.3501C59.5068 57.3523 59.198 57.6632 59.2002 58.0445L59.2372 64.4336C59.2394 64.8149 59.5518 65.1223 59.9349 65.1201C60.3181 65.1179 60.6269 64.807 60.6247 64.4257Z" fill="#2B2F40"/>
<path d="M55.5 58.0512L55.537 64.4271C55.5392 64.8121 55.8517 65.1223 56.2348 65.1201C56.6179 65.1178 56.9267 64.8039 56.9245 64.419L56.8875 58.0431C56.8853 57.6581 56.5728 57.3479 56.1897 57.3501C55.8066 57.3524 55.4978 57.6663 55.5 58.0512Z" fill="#2B2F40"/>
</g>
<defs>
<filter id="filter0_d_10502_6229" x="41.0542" y="40.7217" width="30.9795" height="33.039" filterUnits="userSpaceOnUse" color-interpolation-filters="sRGB">
<feFlood flood-opacity="0" result="BackgroundImageFix"/>
<feColorMatrix in="SourceAlpha" type="matrix" values="0 0 0 0 0 0 0 0 0 0 0 0 0 0 0 0 0 0 127 0" result="hardAlpha"/>
<feOffset dy="1.85"/>
<feGaussianBlur stdDeviation="0.74"/>
<feColorMatrix type="matrix" values="0 0 0 0 0 0 0 0 0 0 0 0 0 0 0 0 0 0 0.5 0"/>
<feBlend mode="normal" in2="BackgroundImageFix" result="effect1_dropShadow_10502_6229"/>
<feBlend mode="normal" in="SourceGraphic" in2="effect1_dropShadow_10502_6229" result="shape"/>
</filter>
</defs>
</svg>
