<svg width="32" height="32" viewBox="0 0 32 32" fill="none" xmlns="http://www.w3.org/2000/svg">
<g clip-path="url(#clip0_10502_6208)">
<path d="M6.65 11.9688C7.11875 11.4812 7.625 11.0375 8.1625 10.6313L2.40625 2H8.86875L12.7188 8.41875C13.4 8.24375 14.1063 8.11875 14.8313 8.05L10.5813 0.96875C10.2188 0.36875 9.56875 0 8.86875 0H1.5375C0.6875 0 0 0.6875 0 1.5375C0 1.8375 0.0875 2.1375 0.25625 2.3875L6.65 11.9688ZM17.1688 8.05C17.8938 8.1125 18.6 8.2375 19.2812 8.41875L23.1313 2H29.5938L23.8438 10.6313C24.3813 11.0375 24.8875 11.4875 25.3563 11.9688L31.7437 2.3875C31.9125 2.1375 32 1.8375 32 1.5375C32 0.6875 31.3125 0 30.4625 0H23.1313C22.4313 0 21.775 0.36875 21.4188 0.96875L17.1688 8.05ZM16 12C17.1819 12 18.3522 12.2328 19.4442 12.6851C20.5361 13.1374 21.5282 13.8003 22.364 14.636C23.1997 15.4718 23.8626 16.4639 24.3149 17.5558C24.7672 18.6478 25 19.8181 25 21C25 22.1819 24.7672 23.3522 24.3149 24.4442C23.8626 25.5361 23.1997 26.5282 22.364 27.364C21.5282 28.1997 20.5361 28.8626 19.4442 29.3149C18.3522 29.7672 17.1819 30 16 30C14.8181 30 13.6478 29.7672 12.5558 29.3149C11.4639 28.8626 10.4718 28.1997 9.63604 27.364C8.80031 26.5282 8.13738 25.5361 7.68508 24.4442C7.23279 23.3522 7 22.1819 7 21C7 19.8181 7.23279 18.6478 7.68508 17.5558C8.13738 16.4639 8.80031 15.4718 9.63604 14.636C10.4718 13.8003 11.4639 13.1374 12.5558 12.6851C13.6478 12.2328 14.8181 12 16 12ZM16 32C18.9174 32 21.7153 30.8411 23.7782 28.7782C25.8411 26.7153 27 23.9174 27 21C27 18.0826 25.8411 15.2847 23.7782 13.2218C21.7153 11.1589 18.9174 10 16 10C13.0826 10 10.2847 11.1589 8.22183 13.2218C6.15893 15.2847 5 18.0826 5 21C5 23.9174 6.15893 26.7153 8.22183 28.7782C10.2847 30.8411 13.0826 32 16 32ZM18.425 17.6562L17.3438 15.4625C16.7937 14.35 15.2063 14.35 14.6562 15.4625L13.575 17.6562L11.1562 18.0063C9.925 18.1875 9.4375 19.7 10.325 20.5625L12.075 22.2687L11.6562 24.6875C11.4437 25.9125 12.7313 26.85 13.8313 26.2687L16 25.1313L18.1625 26.2687C19.2625 26.85 20.55 25.9125 20.3375 24.6875L19.925 22.275L21.675 20.5688C22.5625 19.7 22.075 18.1875 20.8438 18.0125L18.425 17.6625V17.6562ZM15.25 18.7812L16 17.2625L16.75 18.7812C16.9688 19.225 17.3938 19.5313 17.8813 19.6L19.5562 19.8438L18.3438 21.025C17.9875 21.3687 17.8313 21.8688 17.9125 22.35L18.2 24.0187L16.7 23.2313C16.2625 23 15.7437 23 15.3062 23.2313L13.8062 24.0187L14.0938 22.35C14.175 21.8625 14.0188 21.3687 13.6625 21.025L12.45 19.8438L14.125 19.6C14.6125 19.5313 15.0375 19.225 15.2563 18.7812H15.25Z" fill="#187BDC"/>
</g>
<defs>
<clipPath id="clip0_10502_6208">
<rect width="32" height="32" fill="white"/>
</clipPath>
</defs>
</svg>
