<svg width="17" height="16" viewBox="0 0 17 16" fill="none" xmlns="http://www.w3.org/2000/svg">
<g clip-path="url(#clip0_1_13254)">
<path d="M7 1C7.72227 1 8.43747 1.14226 9.10476 1.41866C9.77205 1.69506 10.3784 2.10019 10.8891 2.61091C11.3998 3.12163 11.8049 3.72795 12.0813 4.39524C12.3577 5.06253 12.5 5.77773 12.5 6.5C12.5 7.22227 12.3577 7.93747 12.0813 8.60476C11.8049 9.27205 11.3998 9.87836 10.8891 10.3891C10.3784 10.8998 9.77205 11.3049 9.10476 11.5813C8.43747 11.8577 7.72227 12 7 12C6.27773 12 5.56253 11.8577 4.89524 11.5813C4.22795 11.3049 3.62164 10.8998 3.11091 10.3891C2.60019 9.87836 2.19506 9.27205 1.91866 8.60476C1.64226 7.93747 1.5 7.22227 1.5 6.5C1.5 5.77773 1.64226 5.06253 1.91866 4.39524C2.19506 3.72795 2.60019 3.12163 3.11091 2.61091C3.62164 2.10019 4.22795 1.69506 4.89524 1.41866C5.56253 1.14226 6.27773 1 7 1ZM7 13C8.61563 13 10.0938 12.4125 11.2281 11.4375L15.6469 15.8531C15.8406 16.0469 16.1594 16.0469 16.3531 15.8531C16.5469 15.6594 16.5469 15.3406 16.3531 15.1469L11.9375 10.7281C12.9125 9.59062 13.5 8.1125 13.5 6.5C13.5 2.90937 10.5906 0 7 0C3.40938 0 0.5 2.90937 0.5 6.5C0.5 10.0906 3.40938 13 7 13Z" fill="#505A64"/>
</g>
<defs>
<clipPath id="clip0_1_13254">
<rect width="16" height="16" fill="white" transform="translate(0.5)"/>
</clipPath>
</defs>
</svg>
