<svg width="20" height="18" viewBox="0 0 20 18" fill="none" xmlns="http://www.w3.org/2000/svg">
<path d="M9.23926 1.12402C8.95091 0.825128 8.47595 0.825288 8.1875 1.12402L1.11523 8.45996L1.06445 8.51758C0.845208 8.79695 0.845207 9.20305 1.06445 9.48242L1.11523 9.54004L8.1875 16.876C8.47595 17.1747 8.95091 17.1749 9.23926 16.876C9.52572 16.5789 9.52569 16.0921 9.23926 15.7949L3.42676 9.7666H18.3574C18.7695 9.7664 19.0996 9.4184 19.0996 9C19.0996 8.5816 18.7695 8.2336 18.3574 8.2334H3.42676L9.23926 2.20508C9.52569 1.90794 9.52572 1.42114 9.23926 1.12402Z" fill="#F4F6F8" stroke="#F4F6F8" stroke-width="0.2"/>
</svg>
