<svg width="40" height="33" viewBox="0 0 40 33" fill="none" xmlns="http://www.w3.org/2000/svg">
<path d="M24 2C26.7625 2 29 4.2375 29 7C26.2375 7 24 4.7625 24 2ZM30.9125 5.875C30.375 2.54375 27.4813 0 24 0H23C22.45 0 22 0.45 22 1V2C22 5.86875 25.1312 9 29 9H29.5063C31.1125 10.9688 32 13.4375 32 16C32 20.55 29.4687 24.5063 25.7375 26.5438C26.325 26.6875 26.9063 26.8562 27.475 27.0562C28.2438 27.325 28.9938 27.6375 29.725 28.0063L30.0125 28.15C33.2313 28.7125 36.6 27.2625 38.325 24.2687L39.375 22.4375C39.6188 22.0125 39.475 21.4688 39.05 21.225C38.3375 20.8125 37.575 20.5375 36.8063 20.3937C38.7438 18.9312 39.9938 16.6125 39.9938 14V11.8875C39.9938 11.3937 39.5938 11 39.1063 11C38.2813 11 37.4875 11.1437 36.75 11.4C37.7 9.16875 37.625 6.53125 36.3187 4.26875L35.2625 2.4375C35.0188 2.0125 34.475 1.86875 34.05 2.1125C32.5312 2.9875 31.4563 4.34375 30.9125 5.875ZM19.9875 30H20H21.225C23.5563 30 25.85 30.5437 27.9312 31.5812L28.55 31.8937C29.0437 32.1437 29.6437 31.9375 29.8937 31.4438C30.1437 30.95 29.9375 30.35 29.4438 30.1L28.825 29.7875C26.4625 28.6125 23.8625 28 21.225 28H20C13.375 28 8 22.625 8 16C8 13.4375 8.8875 10.9688 10.4937 9H11C14.8688 9 18 5.86875 18 2V1C18 0.45 17.55 0 17 0H16C12.5187 0 9.625 2.54375 9.0875 5.875C8.5375 4.34375 7.46875 2.9875 5.95 2.1125C5.525 1.86875 4.98125 2.0125 4.7375 2.4375L3.68125 4.26875C2.375 6.53125 2.3 9.16875 3.24375 11.4C2.50625 11.1437 1.7125 11 0.8875 11C0.4 11 0 11.4 0 11.8875V14C0 16.6125 1.25 18.9312 3.1875 20.3937C2.41875 20.5375 1.6625 20.8125 0.94375 21.225C0.525 21.4688 0.38125 22.0125 0.625 22.4375L1.68125 24.2687C3.54375 27.5 7.31875 28.9375 10.75 27.9813C11.1813 27.8625 11.6063 27.7063 12.0188 27.5063C12.6563 27.95 13.3312 28.3437 14.0437 28.675C13.0562 28.9625 12.1 29.3375 11.175 29.8L10.5562 30.1125C10.0625 30.3625 9.8625 30.9625 10.1062 31.4562C10.35 31.95 10.9562 32.15 11.45 31.9062L12.0688 31.5938C14.15 30.55 16.45 30.0125 18.775 30.0125H19.9813L19.9875 30ZM11 7C11 5.65 11.5312 4.425 12.4 3.53125C13.3125 2.5875 14.5875 2 16 2C16 4.7625 13.7625 7 11 7ZM6 18.1125V19.6625C3.66875 18.8375 2 16.6125 2 14V13.1187C4.2875 13.625 6 15.6688 6 18.1063V18.1125ZM34 19.6625V18.1125C34 15.6687 35.7125 13.6313 38 13.125V14.0063C38 16.6188 36.3312 18.8438 34 19.6625ZM8.93125 24.8312L9.70625 26.1688C7.275 26.6188 4.71875 25.5312 3.4125 23.2687L2.975 22.5063C5.2125 21.8 7.7125 22.7125 8.93125 24.825V24.8312ZM6.04375 12.1687C4.4375 10.2875 4.10625 7.53125 5.4125 5.26875L5.85 4.50625C7.58125 6.0875 8.0375 8.7125 6.81875 10.825L6.04375 12.1687ZM33.175 10.8313C31.9562 8.71875 32.4187 6.09375 34.1437 4.5125L34.5812 5.275C35.8875 7.5375 35.55 10.3 33.9437 12.175L33.1688 10.8375L33.175 10.8313ZM31.0625 24.8312C32.2812 22.7187 34.7875 21.8063 37.0187 22.5125L36.5812 23.275C35.275 25.5375 32.7188 26.625 30.2875 26.175L31.0625 24.8375V24.8312Z" fill="#187BDC"/>
</svg>
