<svg width="20" height="18" viewBox="0 0 20 18" fill="none" xmlns="http://www.w3.org/2000/svg">
<path d="M10.7607 1.12402C11.0491 0.825128 11.5241 0.825288 11.8125 1.12402L18.8848 8.45996L18.9355 8.51758C19.1548 8.79695 19.1548 9.20305 18.9355 9.48242L18.8848 9.54004L11.8125 16.876C11.5241 17.1747 11.0491 17.1749 10.7607 16.876C10.4743 16.5789 10.4743 16.0921 10.7607 15.7949L16.5732 9.7666H1.64258C1.23049 9.7664 0.900391 9.4184 0.900391 9C0.900391 8.5816 1.23049 8.2336 1.64258 8.2334H16.5732L10.7607 2.20508C10.4743 1.90794 10.4743 1.42114 10.7607 1.12402Z" fill="#9EADB9" stroke="#9EADB9" stroke-width="0.2"/>
</svg>
