<svg width="154" height="51" viewBox="0 0 154 51" fill="none" xmlns="http://www.w3.org/2000/svg">
<path d="M18.5013 37.0484C18.9792 36.0114 19.219 34.8835 19.2037 33.745C19.2377 32.6463 19.0016 31.5557 18.5154 30.5661C18.0672 29.6941 17.4444 28.9204 16.6845 28.2915C15.9121 27.6595 15.0597 27.1289 14.1485 26.7131C13.2097 26.2831 12.2493 25.8997 11.2747 25.5663L8.4292 24.5834C7.5883 24.2926 6.77554 23.9283 6.00064 23.4949C5.3566 23.1452 4.78919 22.6737 4.33112 22.1073C3.92608 21.5482 3.72276 20.8717 3.75352 20.1857C3.74862 19.5523 3.89908 18.9272 4.19213 18.3632C4.50341 17.78 4.94298 17.2724 5.47881 16.8774C6.10466 16.4195 6.80636 16.0717 7.55282 15.8494C8.47582 15.5787 9.43531 15.4478 10.3983 15.4612C11.5296 15.4691 12.6566 15.5993 13.759 15.8494C14.7892 16.0709 15.8008 16.3691 16.7852 16.7414L17.049 16.8455L17.8987 15.0926L17.649 14.9779C17.1613 14.7628 16.6591 14.5811 16.146 14.4341C15.5075 14.2382 14.8595 14.0742 14.2043 13.9426C13.5218 13.8009 12.7986 13.6805 12.1028 13.5937C10.2549 13.3018 8.36338 13.4378 6.57824 13.9909C5.58992 14.3157 4.67017 14.8154 3.86421 15.4653C3.13038 16.0707 2.53479 16.8218 2.11645 17.6695C1.70832 18.5043 1.49694 19.419 1.49808 20.3454C1.47037 21.264 1.7169 22.1705 2.20717 22.9526C2.68638 23.6727 3.30932 24.2894 4.03816 24.7653C4.8309 25.2901 5.68062 25.7264 6.57158 26.066C7.47625 26.4198 8.44251 26.7737 9.42375 27.1103C10.405 27.447 11.3305 27.791 12.2535 28.1612C13.1001 28.5037 13.907 28.9346 14.6604 29.4464C15.3365 29.9056 15.9056 30.5012 16.3299 31.1935C16.7666 31.9481 16.9834 32.8066 16.9566 33.6745C16.9795 34.6055 16.7358 35.524 16.2533 36.3251C15.7931 37.0604 15.1757 37.6882 14.444 38.1648C13.6861 38.6572 12.8518 39.0248 11.9738 39.2534C10.3767 39.6761 8.70069 39.721 7.08259 39.3844C6.34831 39.238 5.62526 39.0415 4.9187 38.7963C4.25466 38.5669 3.60395 38.3016 2.96953 38.0018C2.4347 37.7517 1.91679 37.468 1.41901 37.1524L1.1477 36.9779L0 38.9159L0.25717 39.0462C0.555954 39.1985 0.973752 39.4221 1.50557 39.7154C2.13745 40.0556 2.79039 40.3566 3.46056 40.6164C4.29744 40.9422 5.16043 41.1989 6.04059 41.3838C7.06375 41.5946 8.10628 41.7008 9.1516 41.7008H9.44623C10.7547 41.7013 12.0565 41.5176 13.3121 41.1553C14.4522 40.8238 15.519 40.2848 16.4572 39.5663C17.329 38.8947 18.0292 38.0319 18.5021 37.0468M32.6398 15.6971H40.7253V13.6133H22.3697V15.6971H30.3711V41.3707H32.639L32.6398 15.6971ZM75.5631 41.4027L56.927 12.5469L56.669 12.1603L38.0429 40.9841L37.7716 41.4035L40.4573 41.3929L48.0001 29.729H54.6799L53.5464 27.6501H49.3393L56.6732 16.3081L72.7942 41.2618L72.8774 41.3929L75.5631 41.4027ZM99.2628 50.5765C99.2004 50.348 96.6603 46.4082 94.8309 43.5233L93.4461 41.3462L92.4723 39.8218L91.0941 37.7102L89.3854 35.0785L87.6377 32.4115L86.1554 30.1311L85.3906 28.9607C86.911 28.3826 88.195 27.3268 89.0434 25.9571C89.8472 24.6222 90.2726 23.0996 90.2751 21.5479C90.3068 20.2956 90.0095 19.0565 89.4121 17.9504C88.8743 16.9894 88.1257 16.1583 87.2207 15.5177C86.3168 14.8941 85.3086 14.4316 84.242 14.1515C83.2059 13.8709 82.1366 13.7266 81.0619 13.7223H75.5282L66.7195 0H64.0621L74.1641 15.7839H80.9887C81.9492 15.7836 82.9032 15.9399 83.8118 16.2467C84.6258 16.5231 85.3826 16.9418 86.0455 17.4827C86.6399 17.9727 87.122 18.581 87.4604 19.2675C87.7865 19.9481 87.9529 20.6922 87.9473 21.4447C87.9348 22.1163 87.827 22.783 87.6269 23.4252C87.4006 24.1712 87.0191 24.8627 86.5066 25.4558C85.9071 26.1367 85.1638 26.6807 84.3286 27.0497C83.3113 27.4775 82.2164 27.6976 81.1102 27.6968C81.0159 27.6968 80.9218 27.6952 80.8281 27.6919H76.7117L77.8394 29.7716H80.8131C81.2384 29.7716 81.6553 29.7519 82.074 29.7118L83.0727 29.6028C83.3307 29.9952 83.6644 30.4989 84.0614 31.1157C84.5067 31.8201 85.0011 32.5819 85.5362 33.401L87.1849 35.9156L88.7438 38.3106L89.9755 40.2265L91.5335 42.6837C94.2259 46.943 96.6478 50.7772 96.7235 50.8804L96.8142 51H99.5607L99.2628 50.5765ZM118.007 17.1895L119.172 15.4202L118.923 15.2794C117.729 14.6372 116.457 14.1488 115.137 13.8263C113.765 13.4896 112.356 13.3196 110.942 13.3201H110.87C106.892 13.3057 103.06 14.7875 100.156 17.4622C98.7694 18.7672 97.652 20.3232 96.865 22.0451C96.051 23.8209 95.6357 25.7486 95.6474 27.6968C95.6366 29.5785 96.0043 31.4436 96.7294 33.1847C97.4248 34.8603 98.4703 36.3734 99.7979 37.6258C101.185 38.9158 102.813 39.9289 104.592 40.609C106.513 41.3278 108.552 41.6947 110.608 41.6918H110.858H110.926C113.715 41.6958 116.461 41.0228 118.923 39.7326L119.069 39.6564V27.6853H111.624L112.706 29.7535H116.867V38.3065C115.956 38.7506 114.993 39.0851 114.001 39.3025C112.941 39.5391 111.858 39.6597 110.772 39.6621H110.614C108.873 39.6633 107.148 39.3438 105.526 38.7202C104.035 38.157 102.676 37.2997 101.534 36.2011C100.391 35.1024 99.4884 33.7855 98.8816 32.3312C98.2678 30.847 97.9567 29.2583 97.9661 27.6559C97.9604 26.0151 98.3091 24.3918 98.989 22.8936C99.6568 21.4162 100.606 20.0785 101.786 18.953C102.978 17.8303 104.373 16.9369 105.898 16.3188C107.461 15.6851 109.135 15.3595 110.825 15.3604H110.894C112.114 15.3615 113.33 15.5134 114.512 15.8126C115.643 16.0903 116.734 16.5072 117.758 17.0535L118.007 17.1895ZM151.76 27.5215C151.773 29.151 151.424 30.7635 150.737 32.246C150.066 33.6949 149.114 35.0005 147.934 36.0892C146.721 37.1974 145.313 38.0789 143.779 38.6907C142.193 39.3242 140.497 39.6493 138.785 39.6482H138.656C136.977 39.6491 135.315 39.3237 133.765 38.6907C132.254 38.0749 130.87 37.1933 129.68 36.0892C128.513 34.9984 127.575 33.6926 126.918 32.246C126.254 30.7636 125.911 29.1613 125.911 27.5412C125.911 25.9211 126.254 24.3188 126.918 22.8363C128.274 19.8826 130.741 17.561 133.799 16.3589C137.018 15.0815 140.614 15.0815 143.832 16.3589C146.894 17.5533 149.365 19.8693 150.728 22.8199C151.407 24.2955 151.758 25.8967 151.758 27.5166L151.76 27.5215ZM152.804 21.9926L152.839 22.0033C151.206 18.5411 148.284 15.8286 144.677 14.4267C142.839 13.7062 140.878 13.3365 138.899 13.3373H138.612C136.642 13.3351 134.69 13.7049 132.862 14.4267C129.299 15.8455 126.425 18.5553 124.832 21.9976C124.041 23.7323 123.632 25.6123 123.632 27.5137C123.632 29.4152 124.041 31.2951 124.832 33.0299C125.614 34.7135 126.712 36.2367 128.068 37.5194C130.935 40.1949 134.736 41.6855 138.686 41.6836H138.793C140.81 41.6846 142.809 41.3001 144.677 40.5516C146.468 39.837 148.111 38.8078 149.528 37.5145C150.903 36.2393 152.016 34.715 152.805 33.025C153.593 31.2894 154 29.4098 154 27.5088C154 25.6079 153.592 23.7283 152.804 21.9926Z" fill="#9EADB9"/>
</svg>
