<svg width="180" height="60" viewBox="0 0 180 60" fill="none" xmlns="http://www.w3.org/2000/svg">
<path d="M21.6249 43.5863C22.1834 42.3664 22.4637 41.0395 22.4459 39.7C22.4856 38.4074 22.2096 37.1244 21.6414 35.9601C21.1175 34.9342 20.3896 34.024 19.5013 33.2841C18.5986 32.5406 17.6022 31.9164 16.5372 31.4271C15.44 30.9212 14.3174 30.4703 13.1782 30.0781L9.85231 28.9217C8.86945 28.5795 7.91947 28.1509 7.01374 27.641C6.26096 27.2297 5.59776 26.6749 5.06234 26.0086C4.58892 25.3508 4.35127 24.555 4.38723 23.7479C4.3815 23.0028 4.55736 22.2673 4.89989 21.6038C5.26373 20.9176 5.77751 20.3204 6.40381 19.8558C7.13531 19.317 7.95549 18.9079 8.82797 18.6464C9.9068 18.3279 11.0283 18.1739 12.1539 18.1896C13.4762 18.199 14.7935 18.3521 16.082 18.6464C17.2861 18.907 18.4685 19.2578 19.619 19.6958L19.9274 19.8182L20.9206 17.756L20.6288 17.6211C20.0587 17.368 19.4717 17.1542 18.8719 16.9812C18.1257 16.7509 17.3682 16.5579 16.6024 16.4031C15.8047 16.2363 14.9594 16.0947 14.1462 15.9925C11.9863 15.6492 9.77538 15.8092 7.68885 16.4599C6.53368 16.842 5.45864 17.4298 4.51661 18.1945C3.65888 18.9067 2.96274 19.7903 2.47378 20.7876C1.99673 21.7698 1.74967 22.8459 1.751 23.9358C1.71861 25.0165 2.00676 26.0829 2.57981 27.0031C3.13993 27.8502 3.86804 28.5758 4.71992 29.1356C5.6465 29.7531 6.63968 30.2664 7.68106 30.6659C8.73847 31.0822 9.86787 31.4985 11.0148 31.8945C12.1617 32.2906 13.2434 32.6953 14.3222 33.1309C15.3118 33.5338 16.255 34.0407 17.1355 34.6428C17.9258 35.1831 18.591 35.8837 19.0869 36.6983C19.5973 37.586 19.8507 38.596 19.8194 39.6171C19.8462 40.7124 19.5613 41.793 18.9974 42.7354C18.4595 43.6005 17.7378 44.339 16.8826 44.8998C15.9967 45.479 15.0215 45.9116 13.9954 46.1805C12.1286 46.6777 10.1696 46.7305 8.27835 46.3346C7.4201 46.1624 6.57498 45.9312 5.74912 45.6427C4.97298 45.3728 4.21241 45.0608 3.47088 44.708C2.84576 44.4138 2.24041 44.08 1.65859 43.7087L1.34146 43.5035L0 45.7834L0.300589 45.9367C0.649816 46.1159 1.13815 46.379 1.75976 46.7239C2.49831 47.1243 3.2615 47.4783 4.04482 47.784C5.02299 48.1673 6.03167 48.4693 7.06043 48.6869C8.25633 48.9348 9.47487 49.0598 10.6967 49.0598H11.041C12.5704 49.0603 14.092 48.8442 15.5596 48.418C16.8922 48.028 18.1391 47.3939 19.2357 46.5486C20.2546 45.7584 21.0731 44.7434 21.6259 43.5844M38.1505 18.4672H47.601V16.0157H26.1464V18.4672H35.4987V48.6715H38.1495L38.1505 18.4672ZM88.3206 48.709L66.5381 14.761L66.2365 14.3062L44.4657 48.2166L44.1486 48.71L47.2878 48.6975L56.1041 34.9753H63.9116L62.5867 32.5296H57.6693L66.2414 19.186L85.0841 48.5433L85.1814 48.6975L88.3206 48.709ZM116.021 59.5018C115.948 59.2329 112.98 54.5978 110.841 51.2039L109.223 48.6426L108.085 46.8492L106.474 44.365L104.476 41.2688L102.434 38.1312L100.701 35.4484L99.8071 34.0714C101.584 33.3913 103.085 32.1491 104.077 30.5377C105.016 28.9673 105.513 27.176 105.516 25.3504C105.553 23.8772 105.206 22.4194 104.508 21.1181C103.879 19.9875 103.004 19.0098 101.946 18.2561C100.89 17.5225 99.7113 16.9784 98.4647 16.6488C97.2536 16.3187 96.0038 16.1489 94.7477 16.1438H88.2797L77.9838 0H74.8777L86.6853 18.5693H94.6621C95.7848 18.5689 96.8998 18.7529 97.9618 19.1138C98.9133 19.4389 99.7978 19.9315 100.573 20.5679C101.267 21.1444 101.831 21.86 102.226 22.6677C102.608 23.4684 102.802 24.3438 102.796 25.229C102.781 26.0192 102.655 26.8035 102.421 27.5591C102.157 28.4368 101.711 29.2503 101.112 29.948C100.411 30.749 99.5421 31.389 98.5659 31.8232C97.3769 32.3264 96.0971 32.5854 94.8041 32.5845C94.6939 32.5845 94.584 32.5826 94.4744 32.5787H89.663L90.9811 35.0254H94.4568C94.9539 35.0254 95.4413 35.0022 95.9306 34.955L97.098 34.8269C97.3995 35.2884 97.7896 35.8811 98.2536 36.6067C98.774 37.4354 99.3519 38.3316 99.9774 39.2953L101.904 42.2536L103.726 45.0713L105.166 47.3253L106.987 50.2162C110.134 55.2271 112.965 59.7379 113.053 59.8593L113.16 60H116.37L116.021 59.5018ZM137.93 20.2229L139.292 18.1415L139 17.9757C137.606 17.2202 136.119 16.6457 134.576 16.2662C132.972 15.8702 131.325 15.6702 129.672 15.6707H129.588C124.939 15.6538 120.459 17.397 117.065 20.5438C115.445 22.079 114.139 23.9097 113.219 25.9354C112.267 28.0246 111.782 30.2925 111.796 32.5845C111.783 34.7982 112.213 36.9925 113.06 39.0409C113.873 41.0121 115.095 42.7922 116.647 44.2657C118.268 45.7833 120.171 46.9752 122.25 47.7753C124.496 48.6209 126.879 49.0526 129.282 49.0492H129.574H129.654C132.913 49.0539 136.124 48.2622 139 46.7442L139.172 46.6546V32.571H130.469L131.734 35.0042H136.598V45.0665C135.532 45.589 134.408 45.9824 133.247 46.2383C132.009 46.5166 130.744 46.6584 129.474 46.6613H129.289C127.255 46.6627 125.238 46.2869 123.343 45.5531C121.599 44.8906 120.011 43.882 118.676 42.5895C117.34 41.297 116.285 39.7477 115.576 38.0367C114.858 36.2905 114.495 34.4216 114.506 32.5363C114.499 30.606 114.907 28.6963 115.701 26.9337C116.482 25.1955 117.592 23.6217 118.971 22.2976C120.364 20.9768 121.994 19.9258 123.777 19.1986C125.604 18.4531 127.561 18.07 129.536 18.0711H129.616C131.043 18.0723 132.464 18.251 133.846 18.603C135.167 18.9298 136.442 19.4203 137.639 20.063L137.93 20.2229ZM177.382 32.3783C177.397 34.2953 176.989 36.1923 176.186 37.9365C175.402 39.6411 174.289 41.1771 172.91 42.4579C171.492 43.7616 169.846 44.7987 168.053 45.5184C166.2 46.2638 164.217 46.6463 162.217 46.6449H162.065C160.103 46.646 158.161 46.2632 156.349 45.5184C154.583 44.794 152.965 43.7568 151.575 42.4579C150.21 41.1746 149.113 39.6384 148.346 37.9365C147.57 36.1925 147.169 34.3074 147.169 32.4014C147.169 30.4954 147.57 28.6103 148.346 26.8662C149.931 23.3913 152.814 20.66 156.389 19.2458C160.151 17.7429 164.354 17.7429 168.116 19.2458C171.694 20.651 174.583 23.3756 176.175 26.847C176.969 28.5829 177.38 30.4667 177.379 32.3725L177.382 32.3783ZM178.602 25.8737L178.643 25.8862C176.735 21.813 173.319 18.6219 169.103 16.9726C166.954 16.1249 164.662 15.69 162.349 15.6909H162.014C159.712 15.6883 157.43 16.1234 155.293 16.9726C151.129 18.6418 147.77 21.8297 145.908 25.8795C144.983 27.9204 144.505 30.1321 144.505 32.3691C144.505 34.6061 144.983 36.8178 145.908 38.8587C146.822 40.8394 148.105 42.6314 149.69 44.1404C153.041 47.2881 157.483 49.0417 162.101 49.0396H162.226C164.583 49.0406 166.919 48.5884 169.103 47.7078C171.196 46.867 173.117 45.6563 174.772 44.1347C176.38 42.6345 177.681 40.8411 178.603 38.853C179.524 36.811 180 34.5997 180 32.3633C180 30.1269 179.523 27.9156 178.602 25.8737Z" fill="#496579"/>
</svg>
