<svg width="32" height="32" viewBox="0 0 32 32" fill="none" xmlns="http://www.w3.org/2000/svg">
<g clip-path="url(#clip0_10514_1615)">
<path d="M22.0002 1V5H26.0002C26.5502 5 27.0002 5.45 27.0002 6C27.0002 6.55 26.5502 7 26.0002 7H22.0002V11C22.0002 11.55 21.5502 12 21.0002 12C20.4502 12 20.0002 11.55 20.0002 11V7H16.0002C15.4502 7 15.0002 6.55 15.0002 6C15.0002 5.45 15.4502 5 16.0002 5H20.0002V1C20.0002 0.45 20.4502 0 21.0002 0C21.5502 0 22.0002 0.45 22.0002 1ZM9.55018 16.5938C9.25643 17.1875 8.69393 17.5938 8.04393 17.6875L2.57518 18.4875L6.53768 22.3563C7.00643 22.8125 7.22518 23.475 7.11268 24.125L6.17518 29.5812L11.0627 27.0063C11.6439 26.7 12.3439 26.7 12.9252 27.0063L17.8127 29.5812L16.8752 24.125C16.7627 23.475 16.9814 22.8188 17.4502 22.3563L21.4127 18.4875L15.9439 17.6938C15.2939 17.6 14.7314 17.1875 14.4377 16.6L11.9939 11.6375L9.55018 16.6V16.5938ZM10.6502 9.8375C11.2002 8.71875 12.7939 8.71875 13.3439 9.8375L16.2377 15.7125L22.7064 16.6562C23.9377 16.8375 24.4252 18.3437 23.5377 19.2125L18.8564 23.7875L19.9627 30.2437C20.1752 31.4687 18.8877 32.4063 17.7877 31.825L12.0002 28.775L6.20643 31.825C5.10643 32.4063 3.81893 31.4687 4.03143 30.2437L5.13768 23.7875L0.450181 19.2125C-0.437319 18.3437 0.0564313 16.8312 1.28143 16.6562L7.75018 15.7125L10.6439 9.8375H10.6502ZM28.0002 10C28.5502 10 29.0002 10.45 29.0002 11V13H31.0002C31.5502 13 32.0002 13.45 32.0002 14C32.0002 14.55 31.5502 15 31.0002 15H29.0002V17C29.0002 17.55 28.5502 18 28.0002 18C27.4502 18 27.0002 17.55 27.0002 17V15H25.0002C24.4502 15 24.0002 14.55 24.0002 14C24.0002 13.45 24.4502 13 25.0002 13H27.0002V11C27.0002 10.45 27.4502 10 28.0002 10Z" fill="#187BDC"/>
</g>
<defs>
<clipPath id="clip0_10514_1615">
<rect width="32" height="32" fill="white"/>
</clipPath>
</defs>
</svg>
